<svg xmlns="http://www.w3.org/2000/svg" viewBox="0 0 48 48" class="svg-inline--fa fa-2x" version="1.1"><g><path d="M44,24c0,11.044-8.956,20-20,20S4,35.044,4,24S12.956,4,24,4S44,12.956,44,24z" style="fill: rgb(33, 150, 243);"></path><path d="M31.684,23.867l-2.48,1.441L22.43,13.652c-0.27-0.465-0.113-1.063,0.355-1.336l0.793-0.461   c0.465-0.27,1.063-0.113,1.332,0.355L31.684,23.867z" style="fill: rgb(255, 255, 255);"></path><path d="M29.48,25.789l2.48-1.441l1.438,2.469l-2.48,1.441L29.48,25.789z" style="fill: rgb(255, 255, 255);"></path><path d="M13.84,28.152l5.988-10.246l2.555,1.492l-5.988,10.246L13.84,28.152z" style="fill: rgb(255, 255, 255);"></path><path d="M12.285,33.375l1.234-4.676l2.555,1.496l-3.469,3.367c-0.059,0.063-0.156,0.074-0.23,0.031   C12.297,33.547,12.262,33.461,12.285,33.375" style="fill: rgb(255, 255, 255);"></path><path d="M20.035,17.547l0.863-1.469c0.27-0.469,0.871-0.625,1.336-0.352l0.867,0.508   c0.465,0.273,0.621,0.871,0.348,1.336l-0.859,1.473L20.035,17.547z" style="fill: rgb(255, 255, 255);"></path><path d="M33.023,27.578c-0.402,0.23-1.004,0.586-1.359,0.797c-0.664,0.395-0.152,1.559,0,1.809   c0.859,1.441,1.746,1.238,2.414,2.258c0.367,0.559,0.266,0.805,0.379,0.992c0.047,0.066,0.191,0.133,0.246,0.055   c1.031-1.426,0.73-3.879-0.02-4.973C34.336,28.004,33.703,27.191,33.023,27.578" style="fill: rgb(255, 255, 255);"></path><path d="M36.637,25.41h-3.563l-1.555-2.855h5.117V25.41z" style="fill: rgb(255, 255, 255);"></path><path d="M28.617,25.41h-9.293l1.586-2.855h6.121L28.617,25.41z" style="fill: rgb(255, 255, 255);"></path><path d="M14.945,25.41h-3.617v-2.855h5.309L14.945,25.41z" style="fill: rgb(255, 255, 255);"></path></g></svg>